HIERARCHY
ROOT Hips
{
    OFFSET 0.000000 0.000000 0.000000
    CHANNELS 6 Xposition Yposition Zposition Zrotation Xrotation Yrotation
    JOINT Spine
    {
        OFFSET -0.000000 14.517291 0.000000
        CHANNELS 3 Zrotation Xrotation Yrotation
        JOINT Spine1
        {
            OFFSET -0.000000 37.558300 0.000000
            CHANNELS 3 Zrotation Xrotation Yrotation
            JOINT Neck
            {
                OFFSET -0.000000 37.404057 3.400369
                CHANNELS 3 Zrotation Xrotation Yrotation
                JOINT Head
                {
                    OFFSET -0.000000 24.785618 -3.540803
                    CHANNELS 3 Zrotation Xrotation Yrotation
                    End Site
                    {
                        OFFSET -0.000000 35.408028 0.000000
                    }
                }
            }
            JOINT LeftShoulder
            {
                OFFSET 6.992933 33.973492 -0.192664
                CHANNELS 3 Zrotation Xrotation Yrotation
                JOINT LeftArm
                {
                    OFFSET 21.527611 0.000000 0.000000
                    CHANNELS 3 Zrotation Xrotation Yrotation
                    JOINT LeftForeArm
                    {
                        OFFSET 56.353916 0.000000 0.000000
                        CHANNELS 3 Zrotation Xrotation Yrotation
                        JOINT LeftHand
                        {
                            OFFSET 47.774071 0.000000 0.000000
                            CHANNELS 3 Zrotation Xrotation Yrotation
                            End Site
                            {
                                OFFSET 26.556021 0.000000 0.000000
                            }
                        }
                    }
                }
            }
            JOINT RightShoulder
            {
                OFFSET -7.065357 33.973492 -0.192664
                CHANNELS 3 Zrotation Xrotation Yrotation
                JOINT RightArm
                {
                    OFFSET -21.527611 0.000000 0.000000
                    CHANNELS 3 Zrotation Xrotation Yrotation
                    JOINT RightForeArm
                    {
                        OFFSET -56.353916 0.000000 0.000000
                        CHANNELS 3 Zrotation Xrotation Yrotation
                        JOINT RightHand
                        {
                            OFFSET -47.774071 0.000000 0.000000
                            CHANNELS 3 Zrotation Xrotation Yrotation
                            End Site
                            {
                                OFFSET -26.556021 0.000000 0.000000
                            }
                        }
                    }
                }
            }
        }
    }
    JOINT LeftUpLeg
    {
        OFFSET 17.704014 0.000000 0.000000
        CHANNELS 3 Zrotation Xrotation Yrotation
        JOINT LeftLeg
        {
            OFFSET -0.000000 -81.181816 0.000000
            CHANNELS 3 Zrotation Xrotation Yrotation
            JOINT LeftFoot
            {
                OFFSET -0.000000 -62.821102 0.000000
                CHANNELS 3 Zrotation Xrotation Yrotation
                JOINT LeftToeBase
                {
                    OFFSET -0.000000 -11.507608 26.556021
                    CHANNELS 3 Zrotation Xrotation Yrotation
                    End Site
                    {
                        OFFSET -0.000000 0.000000 7.081605
                    }
                }
            }
        }
    }
    JOINT RightUpLeg
    {
        OFFSET -17.704014 0.000000 0.000000
        CHANNELS 3 Zrotation Xrotation Yrotation
        JOINT RightLeg
        {
            OFFSET -0.000000 -81.181816 0.000000
            CHANNELS 3 Zrotation Xrotation Yrotation
            JOINT RightFoot
            {
                OFFSET -0.000000 -62.821102 0.000000
                CHANNELS 3 Zrotation Xrotation Yrotation
                JOINT RightToeBase
                {
                    OFFSET -0.000000 -11.507608 26.556021
                    CHANNELS 3 Zrotation Xrotation Yrotation
                    End Site
                    {
                        OFFSET -0.000000 0.000000 7.081605
                    }
                }
            }
        }
    }
}
MOTION
Frames:    8
Frame Time:    0.008333
-1.323324    100.733528    -110.558975    -7.769460    0.376836    56.454990    4.275456    9.805606    -6.873413    -6.980026    -2.703860    -2.327682    7.184281    3.072590    -19.978918    14.951091    -10.297901    -18.322128    10.110834    6.882195    -23.413601    -32.723244    17.969131    -51.475269    -4.475411    -15.380246    -116.550316    -1.481164    -22.140047    -8.374071    -13.717656    -7.286205    -8.631704    14.845313    -24.506695    43.847851    -17.502163    -18.835430    43.408901    5.215018    -10.604136    31.845648    67.851730    -34.363052    22.299150    -128.217148    67.586441    78.825775    -13.966337    -39.447479    23.517826    0.000000    0.000000    0.000000    -71.494736    -35.998714    -58.142605    103.477432    66.077797    -86.286049    0.919254    -19.794910    -11.950765    0.000000    0.000000    0.000000    
-1.268034    100.607872    -110.585312    -7.687352    0.281796    56.413609    4.277044    9.828579    -6.886415    -6.980311    -2.692992    -2.331014    7.173867    3.176477    -19.988739    15.023200    -10.327251    -18.304474    10.161830    7.067383    -23.236586    -32.607498    17.979494    -51.765362    -4.415934    -15.499241    -116.460342    -1.564360    -22.146471    -8.449639    -13.696637    -7.284745    -8.614264    14.857652    -24.502560    43.885952    -17.425962    -18.756014    43.409145    5.165990    -10.568310    31.797556    67.938736    -34.309063    22.227552    -128.586700    67.478432    79.159775    -14.050062    -39.414829    23.417192    0.000000    0.000000    0.000000    -71.456825    -35.959007    -57.971226    103.634796    66.037216    -86.490906    1.184974    -19.929947    -11.797521    0.000000    0.000000    0.000000    
-1.216167    100.494720    -110.592148    -7.595144    0.160739    56.378876    4.281632    9.878839    -6.899934    -6.955653    -2.697122    -2.334354    7.112002    3.221870    -20.005661    15.091405    -10.249759    -18.306459    10.116961    7.087497    -23.227198    -32.617435    18.014362    -51.723312    -4.398071    -15.496588    -116.467339    -1.549685    -22.118828    -8.460560    -13.711273    -7.251739    -8.597284    14.879022    -24.497162    43.905861    -17.346138    -18.694513    43.432747    5.052565    -10.567216    31.734806    68.013153    -34.247082    22.116600    -128.936417    67.419167    79.449463    -14.163555    -39.387608    23.299704    0.000000    0.000000    0.000000    -71.370430    -35.909389    -57.763168    103.807220    65.994080    -86.686020    1.437261    -20.085707    -11.663427    0.000000    0.000000    0.000000    
-1.173307    100.373032    -110.615829    -7.523480    0.080668    56.316536    4.287288    9.916096    -6.888761    -6.970747    -2.745857    -2.333274    7.057946    3.314849    -20.025541    15.179831    -10.231550    -18.297386    10.005434    6.972579    -23.366245    -32.743999    18.056631    -51.388771    -4.410840    -15.367321    -116.564568    -1.586614    -22.024075    -8.444724    -13.714955    -7.202999    -8.576237    14.908702    -24.515448    43.917728    -17.239119    -18.609051    43.478092    4.974509    -10.536877    31.706352    68.083046    -34.179489    22.042931    -129.273773    67.373436    79.752403    -14.303519    -39.366154    23.128824    0.000000    0.000000    0.000000    -71.336990    -35.918549    -57.607494    103.980026    65.954987    -86.973709    1.667585    -20.244240    -11.500283    0.000000    0.000000    0.000000    
-1.143552    100.247147    -110.638000    -7.452517    0.022977    56.252441    4.269563    9.934829    -6.886926    -7.003532    -2.761487    -2.334673    7.092455    3.277976    -20.000790    15.117759    -10.139654    -18.303659    9.929713    6.864717    -23.438725    -32.832996    18.115833    -51.132710    -4.436830    -15.265431    -116.656364    -1.603345    -21.976683    -8.407908    -13.714945    -7.221531    -8.577528    14.986348    -24.517464    43.971165    -17.110195    -18.481890    43.494900    4.909793    -10.471456    31.720057    68.132629    -34.115223    21.969194    -129.568146    67.336250    80.032410    -14.458513    -39.359909    22.934391    0.000000    0.000000    0.000000    -71.345001    -35.942921    -57.469776    104.189346    65.917366    -87.284210    1.936722    -20.382942    -11.310894    0.000000    0.000000    0.000000    
-1.223516    100.100800    -110.682465    -7.523170    0.064797    56.200195    4.173537    9.880804    -6.869709    -6.957432    -2.879334    -2.338557    7.099204    3.279246    -19.989609    15.105435    -10.073241    -18.303978    9.932845    6.915306    -23.392559    -32.852692    18.133812    -51.121502    -4.463462    -15.198500    -116.670998    -1.577913    -21.955997    -8.413541    -13.686090    -7.149403    -8.567261    15.016545    -24.561926    44.013687    -16.989525    -18.404329    43.521194    4.823499    -10.462480    31.647215    68.302841    -34.185211    22.097322    -129.870956    67.324104    80.335556    -14.667923    -39.365124    22.741739    0.000000    0.000000    0.000000    -71.498146    -36.086704    -57.574913    104.430565    65.886879    -87.690865    2.151980    -20.483887    -11.131242    0.000000    0.000000    0.000000    
-1.195215    100.009430    -110.686134    -7.447824    -0.023872    56.150513    4.170041    9.924783    -6.878493    -6.942878    -2.890399    -2.341271    6.997072    3.301809    -20.000690    15.182475    -10.037972    -18.289270    9.962560    7.129370    -23.151587    -32.741413    18.126841    -51.413731    -4.448110    -15.241206    -116.591003    -1.570441    -21.963322    -8.457699    -13.721109    -7.098341    -8.577830    15.030254    -24.522951    44.062576    -16.946440    -18.384052    43.514214    4.773431    -10.476406    31.592155    68.325790    -34.122593    21.973906    -130.116531    67.302139    80.556137    -14.783316    -39.381870    22.605566    0.000000    0.000000    0.000000    -71.442024    -36.089508    -57.438183    104.604660    65.876869    -87.980759    2.337285    -20.560638    -10.933063    0.000000    0.000000    0.000000    
-1.169716    99.927711    -110.684265    -7.378331    -0.106827    56.104618    4.145149    9.969785    -6.878603    -6.894702    -2.914210    -2.341650    6.921986    3.321342    -20.010136    15.196099    -10.023092    -18.287813    9.803856    6.990112    -23.260702    -32.882420    18.165611    -51.048130    -4.529878    -15.031486    -116.706291    -1.430042    -21.911282    -8.375561    -13.770761    -7.038300    -8.601089    15.076835    -24.541544    44.130318    -16.848589    -18.312984    43.536121    4.715292    -10.453766    31.612553    68.340553    -34.069126    21.841320    -130.318802    67.255493    80.728600    -14.845893    -39.405857    22.551378    0.000000    0.000000    0.000000    -71.383026    -36.092304    -57.317287    104.771347    65.878349    -88.193855    2.494848    -20.646717    -10.798026    0.000000    0.000000    0.000000    
